<svg role="img" viewBox="0 0 24 24" xmlns="http://www.w3.org/2000/svg" id="Netlify--Streamline-Simple-Icons" height="24" width="24">
  <desc>
    Netlify Streamline Icon: https://streamlinehq.com
  </desc>
  <title>Netlify</title>
  <path d="M6.49 19.04h-0.23L5.13 17.9v-0.23l1.73 -1.71h1.2l0.15 0.15v1.2L6.5 19.04ZM5.13 6.31V6.1l1.13 -1.13h0.23L8.2 6.68v1.2l-0.15 0.15h-1.2L5.13 6.31Zm9.96 9.09h-1.65l-0.14 -0.13v-3.83c0 -0.68 -0.27 -1.2 -1.1 -1.23 -0.42 0 -0.9 0 -1.43 0.02l-0.07 0.08v4.96l-0.14 0.14H8.9l-0.13 -0.14V8.73l0.13 -0.14h3.7a2.6 2.6 0 0 1 2.61 2.6v4.08l-0.13 0.14Zm-8.37 -2.44H0.14L0 12.82v-1.64l0.14 -0.14h6.58l0.14 0.14v1.64l-0.14 0.14Zm17.14 0h-6.58l-0.14 -0.14v-1.64l0.14 -0.14h6.58l0.14 0.14v1.64l-0.14 0.14ZM11.05 6.55V1.64l0.14 -0.14h1.65l0.14 0.14v4.9l-0.14 0.14h-1.65l-0.14 -0.13Zm0 15.81v-4.9l0.14 -0.14h1.65l0.14 0.13v4.91l-0.14 0.14h-1.65l-0.14 -0.14Z" fill="#000000" stroke-width="1"></path>
</svg>