<svg xmlns="http://www.w3.org/2000/svg" fill="none" viewBox="0 0 24 24" id="Sass--Streamline-Svg-Logos" height="24" width="24">
  <desc>
    Sass Streamline Icon: https://streamlinehq.com
  </desc>
  <path fill="#cd6799" d="M20.48535 13.31935c-0.81985 0.0043 -1.532375 0.20175 -2.129025 0.493625 -0.2189 -0.433525 -0.437825 -0.81985 -0.47645 -1.10315 -0.042925 -0.3305 -0.094425 -0.53225 -0.042925 -0.92715 0.0515 -0.3949 0.2833 -0.9572 0.279 -1.000125 -0.004275 -0.042925 -0.0515 -0.24465 -0.523675 -0.24895 -0.47215 -0.0043 -0.879925 0.09015 -0.92715 0.214625 -0.0472 0.124475 -0.13735 0.407775 -0.19745 0.69965 -0.08155 0.42925 -0.9443 1.961625 -1.437925 2.764275 -0.158825 -0.313325 -0.296175 -0.58805 -0.326225 -0.80695 -0.042925 -0.330525 -0.094425 -0.53225 -0.042925 -0.92715 0.0515 -0.3949 0.2833 -0.9572 0.279 -1.000125 -0.0043 -0.042925 -0.0515 -0.244675 -0.523675 -0.24895 -0.47215 -0.0043 -0.879925 0.090125 -0.92715 0.2146 -0.0472 0.1245 -0.098725 0.416375 -0.19745 0.699675 -0.098725 0.283275 -1.244775 2.841525 -1.54525 3.50255 -0.154525 0.3391 -0.287575 0.609525 -0.382025 0.7941 0 0 -0.004275 0.012875 -0.01715 0.03435 -0.08155 0.1588 -0.128775 0.24465 -0.128775 0.24465l0 0.0043c-0.0644 0.1159 -0.133075 0.2232 -0.1674 0.2232 -0.02575 0 -0.072975 -0.30905 0.008575 -0.7297 0.1717 -0.888525 0.579475 -2.270675 0.575175 -2.317875 0 -0.02575 0.077275 -0.266125 -0.266125 -0.3906 -0.3348 -0.1245 -0.454975 0.08155 -0.485025 0.08155 -0.03005 0 -0.051525 0.072975 -0.051525 0.072975s0.37345 -1.55385 -0.712525 -1.55385c-0.6782 0 -1.613925 0.742575 -2.0775 1.4122 -0.291875 0.1588 -0.914275 0.4979 -1.5796 0.86275 -0.25325 0.14165 -0.515075 0.2833 -0.75975 0.416375 -0.017175 -0.017175 -0.034325 -0.03865 -0.0515 -0.0558 -1.313475 -1.403625 -3.742945 -2.39515 -3.63993 -4.2795 0.0386325 -0.686775 0.2747125 -2.489575 4.665805 -4.678675 3.614175 -1.781325 6.49005 -1.287725 6.987975 -0.19315 0.712525 1.5624 -1.540975 4.46405 -5.275325 4.8847 -1.425075 0.158825 -2.171925 -0.3906 -2.3608 -0.596625 -0.19745 -0.214625 -0.2275 -0.2275 -0.300475 -0.184575 -0.120175 0.064375 -0.042925 0.257525 0 0.369125 0.1116 0.2919 0.5709 0.806975 1.347825 1.060225 0.686775 0.2232 2.3565 0.347675 4.3782 -0.433525 2.262075 -0.87565 4.030525 -3.309425 3.51115 -5.3483 -0.519375 -2.068925 -3.95325 -2.7514 -7.202575 -1.59675 -1.931575 0.686775 -4.02625 1.76845 -5.5328675 3.17635C0.43999 8.59775 0.15669325 10.05285 0.2725875 10.662375c0.41636 2.16335 3.3995625 3.57125 4.5928375 4.6143 -0.0601 0.034325 -0.1159 0.064375 -0.163125 0.090125 -0.596625 0.296175 -2.8715825 1.485175 -3.438175 2.742825 -0.643855 1.425075 0.103015 2.44665 0.5966375 2.584 1.5323875 0.42495 3.1076625 -0.3391 3.9532625 -1.60105 0.8456 -1.26195 0.742575 -2.901625 0.351975 -3.6528 -0.004275 -0.008575 -0.008575 -0.017175 -0.017175 -0.02575 0.154525 -0.09015 0.31335 -0.184575 0.467875 -0.274725 0.304775 -0.180275 0.605225 -0.347675 0.862775 -0.485025 -0.14595 0.3992 -0.25325 0.87565 -0.30475 1.562425 -0.0644 0.80695 0.266125 1.8543 0.69965 2.266375 0.19315 0.180275 0.42065 0.18455 0.566575 0.18455 0.5065 0 0.734 -0.42065 0.98725 -0.91855 0.30905 -0.609525 0.58805 -1.31775 0.58805 -1.31775s-0.347675 1.914375 0.59665 1.914375c0.343375 0 0.691075 -0.4464 0.8456 -0.6739v0.0043s0.008575 -0.012875 0.02575 -0.042925c0.03435 -0.0558 0.0558 -0.09015 0.0558 -0.09015v-0.008575c0.13735 -0.240375 0.4464 -0.7855 0.9057 -1.6912 0.592325 -1.167525 1.163225 -2.626925 1.163225 -2.626925s0.0515 0.356275 0.2275 0.948625c0.103 0.347675 0.317625 0.7297 0.489325 1.09885 -0.13735 0.19315 -0.2232 0.30045 -0.2232 0.30045l0.004275 0.0043c-0.1116 0.14595 -0.231775 0.30475 -0.36485 0.459275 -0.46785 0.558025 -1.025875 1.197575 -1.103125 1.38215 -0.09015 0.2189 -0.068675 0.377725 0.103025 0.5065 0.124475 0.094425 0.347675 0.1073 0.575175 0.094425 0.42065 -0.03005 0.716825 -0.13305 0.86275 -0.19745 0.2275 -0.08155 0.493625 -0.206025 0.742575 -0.3906 0.4593 -0.3391 0.7383 -0.824125 0.71255 -1.4637 -0.012875 -0.351975 -0.128775 -0.70395 -0.270425 -1.03445 0.042925 -0.0601 0.08155 -0.1202 0.124475 -0.180275 0.7254 -1.060225 1.287725 -2.22345 1.287725 -2.22345s0.0515 0.35625 0.227475 0.9486c0.08585 0.300475 0.26185 0.6267 0.416375 0.944325 -0.6825 0.553725 -1.10315 1.197575 -1.253375 1.618225 -0.270425 0.7812 -0.0601 1.133175 0.3391 1.21475 0.180275 0.038625 0.437825 -0.047225 0.626675 -0.128775 0.240375 -0.077275 0.523675 -0.210325 0.7941 -0.407775 0.459275 -0.3391 0.9014 -0.811275 0.875625 -1.450825 -0.012875 -0.291875 -0.090125 -0.579475 -0.19745 -0.858475 0.579475 -0.240375 1.32635 -0.373425 2.27925 -0.261825 2.043175 0.240375 2.44665 1.5152 2.3694 2.05175 -0.077275 0.53655 -0.5065 0.828425 -0.64815 0.91855 -0.14165 0.09015 -0.188875 0.1202 -0.176 0.184575 0.017175 0.094425 0.08585 0.09015 0.20605 0.072975 0.1674 -0.03005 1.073075 -0.433525 1.111725 -1.420775 0.064375 -1.26195 -1.137475 -2.6398 -3.2622 -2.626925ZM4.723775 18.6333c-0.6782 0.738275 -1.622525 1.0173 -2.0303 0.7812 -0.437815 -0.25325 -0.26612 -1.3435 0.5666 -2.1247 0.5065 -0.476475 1.15895 -0.918575 1.592475 -1.189 0.098725 -0.0601 0.24465 -0.14595 0.42065 -0.25325 0.03005 -0.017175 0.0472 -0.02575 0.0472 -0.02575 0.03435 -0.021475 0.0687 -0.042925 0.103025 -0.064375 0.30475 1.116 0.012875 2.09895 -0.69965 2.875875ZM9.66 15.276675c-0.2361 0.575175 -0.7297 2.04745 -1.030175 1.9659 -0.25755 -0.068675 -0.41635 -1.1847 -0.0515 -2.287825 0.184575 -0.553725 0.575175 -1.21475 0.802675 -1.4723 0.369125 -0.41205 0.7769 -0.549425 0.875625 -0.382 0.124475 0.2189 -0.4507 1.81565 -0.596625 2.176225Zm4.07345 1.948725c-0.098725 0.0515 -0.19315 0.08585 -0.236075 0.0601 -0.03005 -0.017175 0.042925 -0.08585 0.042925 -0.08585s0.510775 -0.549425 0.712525 -0.798375c0.1159 -0.14595 0.25325 -0.31765 0.3992 -0.5108v0.0558c0 0.656725 -0.635275 1.09885 -0.918575 1.279125Zm3.142 -0.716825c-0.07295 -0.0515 -0.060075 -0.2232 0.184575 -0.75975 0.09445 -0.210325 0.31765 -0.5623 0.699675 -0.9014 0.0429 0.137375 0.07295 0.270425 0.068675 0.3949 -0.0043 0.828425 -0.59665 1.137475 -0.952925 1.26625Z" stroke-width="0.25"></path>
</svg>